<?xml version="1.0" encoding="utf-8"?>
<!-- Generator: Adobe Illustrator 16.0.0, SVG Export Plug-In . SVG Version: 6.00 Build 0)  -->
<!DOCTYPE svg PUBLIC "-//W3C//DTD SVG 1.1//EN" "http://www.w3.org/Graphics/SVG/1.1/DTD/svg11.dtd">
<svg version="1.1" id="Layer_1" xmlns="http://www.w3.org/2000/svg" xmlns:xlink="http://www.w3.org/1999/xlink" x="0px" y="0px"
	 width="45.42px" height="34.259px" viewBox="0.197 0.818 45.42 34.259" enable-background="new 0.197 0.818 45.42 34.259"
	 xml:space="preserve">
<g>
	<g id="apg-logo-inline-greenwhite">
		<path id="Vector_40" fill="#1DFFA6" d="M2.12,35.075L17.061,6.059c1.137-2.21,3.323-3.53,5.846-3.53
			c2.522,0,4.707,1.319,5.846,3.53l14.941,29.019h1.923L30.271,5.275c-1.415-2.75-4.237-4.457-7.365-4.457s-5.95,1.708-7.365,4.457
			l-15.345,29.8H2.12z"/>
		<path id="Vector_41" fill="#1DFFA6" d="M6.146,35.075L19.651,8.426c0.633-1.25,1.848-1.995,3.249-1.995s2.615,0.746,3.249,1.995
			l13.506,26.651h1.901L27.663,7.659c-0.914-1.803-2.739-2.924-4.761-2.924c-2.021,0-3.847,1.121-4.761,2.924L4.245,35.075H6.146z"
			/>
		<path id="Vector_42" fill="#1DFFA6" d="M24.933,9.743C24.51,8.909,23.751,8.411,22.9,8.411s-1.61,0.498-2.033,1.332L8.031,35.075
			h1.901l0.585-1.155c2.789-3.7,7.218-6.094,12.208-6.094c5.492,0,10.305,2.899,12.998,7.249h2.05L24.933,9.743z M22.379,10.51
			c0.131-0.256,0.319-0.403,0.521-0.403s0.39,0.147,0.521,0.403l4.713,9.301c-1.716-0.389-3.478-0.584-5.269-0.584
			s-3.498,0.19-5.191,0.567L22.379,10.51z M16.651,21.812c1.982-0.562,4.068-0.866,6.212-0.866c2.145,0,4.282,0.309,6.292,0.883
			l1.116,2.203c-2.334-0.898-4.835-1.375-7.411-1.375s-5.009,0.463-7.315,1.338L16.651,21.812z M22.723,26.032
			c-3.541,0-6.919,1.071-9.762,3.062l1.328-2.619c2.571-1.316,5.483-2.061,8.572-2.061c3.088,0,6.079,0.764,8.676,2.114l1.509,2.978
			c-2.954-2.252-6.543-3.473-10.321-3.473L22.723,26.032z"/>
	</g>
</g>
</svg>
