<?xml version="1.0" encoding="utf-8"?>
<!-- Generator: Adobe Illustrator 16.0.0, SVG Export Plug-In . SVG Version: 6.00 Build 0)  -->
<!DOCTYPE svg PUBLIC "-//W3C//DTD SVG 1.1//EN" "http://www.w3.org/Graphics/SVG/1.1/DTD/svg11.dtd">
<svg version="1.1" id="artwork" xmlns="http://www.w3.org/2000/svg" xmlns:xlink="http://www.w3.org/1999/xlink" x="0px" y="0px"
	 width="290.518px" height="174.4px" viewBox="223 0 290.518 174.4" enable-background="new 223 0 290.518 174.4"
	 xml:space="preserve">
<title>Elavon primary logo-artboard</title>
<path fill="#0065A2" d="M442.1,68.1c0.217-5.936,0.083-11.88-0.399-17.8c-53,4.5-127.4,38.5-196.3,94c-7.8,6.3-15.3,12.6-22.4,19
	h4.4c1.3-1,2.5-2.1,3.8-3.2c72.5-58.3,151.7-92.2,205.5-92.2C438.5,67.9,440.3,68,442.1,68.1z"/>
<path fill="#0065A2" d="M500.7,65.7c-7.601-7.8-18.4-12.4-31.3-14.5c0.867,7.604,1.335,15.247,1.399,22.9
	c6.038,2.481,11.515,6.154,16.101,10.8c9.8,10,14.199,23.7,13.199,40.8c-0.699,11.6-3.899,24.299-9.3,37.7h2.9
	c11.7-21.3,18.6-41.3,19.7-58.7C514.3,88.3,510,75.2,500.7,65.7z"/>
<path fill="#0065A2" d="M457.2,21C452.5,7.1,445.6,0,436.7,0H436.6c-16.3,0-36.6,24-56.8,65.4c3.5-1.3,7-2.5,10.4-3.7
	C404.3,38,417.7,24,427.4,24h0.899c5.4,0.5,9.4,5.7,11.7,15.5c6,25.2-0.6,74.6-15.3,126.701c11.3,0.699,21.2,3.5,29.5,8.199
	C465.5,109.5,467.5,51.3,457.2,21z"/>
<path fill="#0065A2" d="M368.6,90.2c-4.6,10.9-9.1,22.6-13.6,35.2c-4.4,12.4-8.5,25.1-12.3,37.9h4.3
	c6.085-19.691,13.194-39.051,21.3-58c2.7-6.2,5.4-12,8.101-17.7C373.8,88.4,371.2,89.2,368.6,90.2z"/>
</svg>
