<?xml version="1.0" encoding="utf-8"?>
<!-- Generator: Adobe Illustrator 16.0.0, SVG Export Plug-In . SVG Version: 6.00 Build 0)  -->
<!DOCTYPE svg PUBLIC "-//W3C//DTD SVG 1.1//EN" "http://www.w3.org/Graphics/SVG/1.1/DTD/svg11.dtd">
<svg version="1.1" id="Layer_1" xmlns="http://www.w3.org/2000/svg" xmlns:xlink="http://www.w3.org/1999/xlink" x="0px" y="0px"
	 width="160px" height="40px" viewBox="0 0 160 40" enable-background="new 0 0 160 40" xml:space="preserve">
<g>
	<title>Layer 1</title>
	<path id="svg_1" fill="#090422" d="M15,15.2c0,1.4-0.2,2.5-0.6,3.5s-1,1.8-1.7,2.399C12,21.7,11.2,22.2,10.4,22.5
		C9.6,22.9,8.7,23,7.8,23H5.4v8.9H0V7.5h7.6c0.9,0,1.7,0.1,2.6,0.4c0.9,0.3,1.7,0.7,2.4,1.3c0.7,0.6,1.3,1.4,1.8,2.4
		C14.8,12.5,15,13.7,15,15.2z M9.9,15.3c0-1.1-0.3-1.9-0.8-2.4s-1.2-0.7-1.9-0.7H5.4v6.4h1.8c0.8,0,1.4-0.3,1.9-0.8
		C9.6,17.1,9.9,16.3,9.9,15.3z"/>
	<path id="svg_2" fill="#090422" d="M27.3,31.9l-1-4.4h-5.5l-1,4.4h-5.5l5.9-24.4h6.9L33,31.9H27.3z M23.7,12.8h-0.1l-2.1,10.4h4.2
		L23.7,12.8z"/>
	<path id="svg_3" fill="#090422" d="M43.4,23.1V31.9H38V23.1L31.8,7.5h5.9l3,10.1l3-10.1h5.8L43.4,23.1z"/>
	<path id="svg_4" fill="#090422" d="M67,12.5v5h5.8v4.7h-5.7v9.7h-5.6V7.5h11.9v5H67z"/>
	<path id="svg_5" fill="#090422" d="M86.5,31.9l-3.301-9.7h-1.6v9.7h-5.3V7.5h7.8c2.4,0,4.2,0.6,5.5,1.8c1.301,1.2,2,3.1,2,5.5
		c0,0.9-0.1,1.7-0.3,2.4c-0.2,0.7-0.5,1.3-0.8,1.8c-0.301,0.5-0.7,0.9-1.1,1.2c-0.4,0.3-0.801,0.5-1.201,0.7L92.4,31.8h-5.9V31.9z
		 M86.199,15.2c0-0.6-0.1-1.1-0.299-1.5c-0.201-0.4-0.4-0.7-0.701-0.9c-0.299-0.2-0.6-0.4-0.899-0.5c-0.3-0.1-0.7-0.1-1-0.1h-1.7
		v6.2h1.6c0.801,0,1.5-0.2,2-0.7C85.9,17.1,86.199,16.3,86.199,15.2z"/>
	<path id="svg_6" fill="#090422" d="M105.8,31.9l-1-4.4h-5.5l-1,4.4h-5.5l5.899-24.4h6.9l5.9,24.4H105.8z M102.1,12.8H102l-2.1,10.4
		h4.199L102.1,12.8z"/>
	<path id="svg_7" fill="#090422" d="M130.4,31.9l0.199-16.7h-0.1l-4.1,16.7h-3.9l-3.9-16.7h-0.1l0.1,16.7h-5V7.5h7l3.9,15.7h0.2
		l3.8-15.7h7.3v24.4H130.4z"/>
	<path id="svg_8" fill="#090422" d="M140.2,31.9V7.5h11.7v4.9h-6.5v4.8h6v4.5h-6v5.2h7v5H140.2z"/>
	
		<linearGradient id="svg_9_1_" gradientUnits="userSpaceOnUse" x1="-224.0117" y1="405.9277" x2="-222.4819" y2="406.7858" gradientTransform="matrix(106.2 0 0 -39.8 23776.0391 16201.1992)">
		<stop  offset="0" style="stop-color:#BDEB32"/>
		<stop  offset="1" style="stop-color:#00B6FF"/>
	</linearGradient>
	<path id="svg_9" fill="url(#svg_9_1_)" d="M159.7,39.8H53.5V0h106.1v39.8H159.7L159.7,39.8z M57.5,35.8h98.2V4H57.5V35.8z"/>
</g>
</svg>
