<svg width="160" height="40" xmlns="http://www.w3.org/2000/svg" fill="none">
 <defs>
  <linearGradient y2="0.84194" x2="1.20955" y1="1.7" x1="-0.32031" id="paint0_linear">
   <stop stop-color="#BDEB32"/>
   <stop stop-color="#00B6FF" offset="1"/>
  </linearGradient>
 </defs>
 <g>
  <title>Layer 1</title>
  <path id="svg_1" fill="#ffffff" d="m15,15.2c0,1.4 -0.2,2.5 -0.6,3.5c-0.4,1 -1,1.8 -1.7,2.4c-0.7,0.6 -1.5,1.1 -2.3,1.4c-0.8,0.4 -1.7,0.5 -2.6,0.5l-2.4,0l0,8.9l-5.4,0l0,-24.4l7.6,0c0.9,0 1.7,0.1 2.6,0.4c0.9,0.3 1.7,0.7 2.4,1.3c0.7,0.6 1.3,1.4 1.8,2.4c0.4,0.9 0.6,2.1 0.6,3.6zm-5.1,0.1c0,-1.1 -0.3,-1.9 -0.8,-2.4c-0.5,-0.5 -1.2,-0.7 -1.9,-0.7l-1.8,0l0,6.4l1.8,0c0.8,0 1.4,-0.3 1.9,-0.8c0.5,-0.7 0.8,-1.5 0.8,-2.5z"/>
  <path id="svg_2" fill="#ffffff" d="m27.2998,31.9l-1,-4.4l-5.5,0l-1,4.4l-5.5,0l5.9,-24.4l6.9,0l5.9,24.4l-5.7,0zm-3.6,-19.1l-0.1,0l-2.1,10.4l4.2,0l-2,-10.4z"/>
  <path id="svg_3" fill="#ffffff" d="m43.3998,23.1l0,8.8l-5.4,0l0,-8.8l-6.2,-15.6l5.9,0l3,10.1l3,-10.1l5.8,0l-6.1,15.6z"/>
  <path id="svg_4" fill="#ffffff" d="m67,12.5l0,5l5.8,0l0,4.7l-5.7,0l0,9.7l-5.6,0l0,-24.4l11.9,0l0,5l-6.4,0z"/>
  <path id="svg_5" fill="#ffffff" d="m86.4998,31.9l-3.3,-9.7l-1.6,0l0,9.7l-5.3,0l0,-24.4l7.8,0c2.4,0 4.2,0.6 5.5,1.8c1.3,1.2 2,3.1 2,5.5c0,0.9 -0.1,1.7 -0.3,2.4c-0.2,0.7 -0.5,1.3 -0.8,1.8c-0.3,0.5 -0.7,0.9 -1.1,1.2c-0.4,0.3 -0.8,0.5 -1.2,0.7l4.2,10.9l-5.9,0l0,0.1zm-0.3,-16.7c0,-0.6 -0.1,-1.1 -0.3,-1.5c-0.2,-0.4 -0.4,-0.7 -0.7,-0.9c-0.3,-0.2 -0.6,-0.4 -0.9,-0.5c-0.3,-0.1 -0.7,-0.1 -1,-0.1l-1.7,0l0,6.2l1.6,0c0.8,0 1.5,-0.2 2,-0.7c0.7,-0.6 1,-1.4 1,-2.5z"/>
  <path id="svg_6" fill="#ffffff" d="m105.8,31.9l-1,-4.4l-5.5002,0l-1,4.4l-5.5,0l5.9,-24.4l6.9002,0l5.9,24.4l-5.7,0zm-3.7,-19.1l-0.1,0l-2.1002,10.4l4.2002,0l-2,-10.4z"/>
  <path id="svg_7" fill="#ffffff" d="m130.4,31.9l0.2,-16.7l-0.1,0l-4.1,16.7l-3.9,0l-3.9,-16.7l-0.1,0l0.1,16.7l-5,0l0,-24.4l7,0l3.9,15.7l0.2,0l3.8,-15.7l7.3,0l0,24.4l-5.4,0z"/>
  <path id="svg_8" fill="#ffffff" d="m140.2,31.9l0,-24.4l11.7,0l0,4.9l-6.5,0l0,4.8l6,0l0,4.5l-6,0l0,5.2l7,0l0,5l-12.2,0z"/>
  <path id="svg_9" fill="url(#paint0_linear)" d="m159.7,39.8l-106.2,0l0,-39.8l106.1,0l0,39.8l0.1,0zm-102.2,-4l98.2,0l0,-31.8l-98.2,0l0,31.8z"/>
 </g>
</svg>